<svg width="50" height="50" viewBox="0 0 50 50" fill="none" xmlns="http://www.w3.org/2000/svg">
<path d="M20.022 12.5558C19.3619 12.5558 18.7289 12.8181 18.2621 13.2848C17.7954 13.7516 17.5331 14.3846 17.5331 15.0447C17.5331 15.7048 17.7954 16.3379 18.2621 16.8046C18.7289 17.2714 19.3619 17.5336 20.022 17.5336H33.925L30.7068 20.7518C30.2535 21.2212 30.0026 21.8499 30.0083 22.5024C30.0139 23.155 30.2757 23.7793 30.7371 24.2407C31.1986 24.7022 31.8228 24.9639 32.4754 24.9696C33.128 24.9753 33.7567 24.7244 34.2261 24.271L41.6928 16.8044C42.1594 16.3376 42.4215 15.7047 42.4215 15.0447C42.4215 14.3848 42.1594 13.7518 41.6928 13.2851L34.2261 5.81842C33.9965 5.58071 33.7219 5.3911 33.4182 5.26066C33.1146 5.13022 32.788 5.06156 32.4575 5.05869C32.127 5.05582 31.7993 5.11879 31.4934 5.24393C31.1876 5.36908 30.9097 5.55388 30.676 5.78757C30.4423 6.02126 30.2575 6.29915 30.1323 6.60503C30.0072 6.9109 29.9442 7.23864 29.9471 7.56911C29.95 7.89958 30.0186 8.22617 30.1491 8.52983C30.2795 8.83348 30.4691 9.10812 30.7068 9.33771L33.925 12.5558H20.022Z" fill="url(#paint0_linear_66_1828)"/>
<path d="M29.9776 37.4447C30.6377 37.4447 31.2707 37.1825 31.7375 36.7158C32.2043 36.249 32.4665 35.6159 32.4665 34.9558C32.4665 34.2957 32.2043 33.6627 31.7375 33.1959C31.2707 32.7292 30.6377 32.467 29.9776 32.467H16.0747L19.2928 29.2488C19.5305 29.0192 19.7201 28.7446 19.8506 28.4409C19.981 28.1373 20.0497 27.8107 20.0525 27.4802C20.0554 27.1497 19.9924 26.822 19.8673 26.5161C19.7421 26.2103 19.5573 25.9324 19.3236 25.6987C19.09 25.465 18.8121 25.2802 18.5062 25.155C18.2003 25.0299 17.8726 24.9669 17.5421 24.9698C17.2116 24.9727 16.885 25.0413 16.5814 25.1718C16.2777 25.3022 16.0031 25.4918 15.7735 25.7295L8.30684 33.1962C7.84024 33.6629 7.57812 34.2959 7.57812 34.9558C7.57812 35.6158 7.84024 36.2487 8.30684 36.7155L15.7735 44.1822C16.2429 44.6355 16.8716 44.8864 17.5242 44.8807C18.1768 44.875 18.801 44.6133 19.2625 44.1518C19.7239 43.6904 19.9857 43.0661 19.9914 42.4135C19.997 41.761 19.7462 41.1323 19.2928 40.6629L16.0747 37.4447H29.9776Z" fill="url(#paint1_linear_66_1828)"/>
<defs>
<linearGradient id="paint0_linear_66_1828" x1="13.9298" y1="64.3771" x2="65.7249" y2="29.0875" gradientUnits="userSpaceOnUse">
<stop stop-color="#982DEC"/>
<stop offset="0.0001" stop-color="#DC8DF8"/>
<stop offset="0.895833" stop-color="#A9C4F3"/>
</linearGradient>
<linearGradient id="paint1_linear_66_1828" x1="13.9298" y1="64.3771" x2="65.7249" y2="29.0875" gradientUnits="userSpaceOnUse">
<stop stop-color="#982DEC"/>
<stop offset="0.0001" stop-color="#DC8DF8"/>
<stop offset="0.895833" stop-color="#A9C4F3"/>
</linearGradient>
</defs>
</svg>
