<svg width="50" height="50" viewBox="0 0 50 50" fill="none" xmlns="http://www.w3.org/2000/svg">
<path fill-rule="evenodd" clip-rule="evenodd" d="M31.2227 8.40625C33.9315 8.40625 36.2378 10.1381 37.0924 12.5544H18.7783C16.0279 12.5544 13.3901 13.647 11.4453 15.5918C9.5005 17.5366 8.40791 20.1744 8.40791 22.9248V32.9425C7.19443 32.5132 6.1439 31.7182 5.401 30.667C4.65811 29.6158 4.25939 28.3601 4.25977 27.0729V14.6285C4.25977 12.9782 4.91532 11.3956 6.08221 10.2287C7.24911 9.0618 8.83175 8.40625 10.482 8.40625H31.2227ZM39.519 16.7025H18.7783C17.128 16.7025 15.5454 17.3581 14.3785 18.525C13.2116 19.6919 12.5561 21.2745 12.5561 22.9248V35.3692C12.5561 37.0194 13.2116 38.6021 14.3785 39.769C15.5454 40.9359 17.128 41.5914 18.7783 41.5914H39.519C41.1693 41.5914 42.7519 40.9359 43.9188 39.769C45.0857 38.6021 45.7412 37.0194 45.7412 35.3692V22.9248C45.7412 21.2745 45.0857 19.6919 43.9188 18.525C42.7519 17.3581 41.1693 16.7025 39.519 16.7025ZM33.2968 29.147C33.2968 30.2471 32.8598 31.3022 32.0818 32.0802C31.3039 32.8581 30.2488 33.2951 29.1487 33.2951C28.0485 33.2951 26.9934 32.8581 26.2155 32.0802C25.4375 31.3022 25.0005 30.2471 25.0005 29.147C25.0005 28.0468 25.4375 26.9917 26.2155 26.2138C26.9934 25.4359 28.0485 24.9988 29.1487 24.9988C30.2488 24.9988 31.3039 25.4359 32.0818 26.2138C32.8598 26.9917 33.2968 28.0468 33.2968 29.147Z" fill="url(#paint0_linear_66_1845)"/>
<defs>
<linearGradient id="paint0_linear_66_1845" x1="11.8215" y1="57.8383" x2="58.1838" y2="12.7111" gradientUnits="userSpaceOnUse">
<stop stop-color="#982DEC"/>
<stop offset="0.572917" stop-color="#DC8DF8"/>
<stop offset="0.895833" stop-color="#A9C4F3"/>
</linearGradient>
</defs>
</svg>
