<svg width="50" height="50" viewBox="0 0 50 50" fill="none" xmlns="http://www.w3.org/2000/svg">
<path d="M39.9337 15.6659V11.9326C39.9337 9.87362 38.2593 8.19922 36.2004 8.19922H11.9337C8.84627 8.19922 6.33374 10.7118 6.33374 13.7992V36.1992C6.33374 40.3078 9.68254 41.7992 11.9337 41.7992H39.9337C41.9927 41.7992 43.6671 40.1248 43.6671 38.0659V19.3992C43.6671 17.3403 41.9927 15.6659 39.9337 15.6659ZM36.2004 32.4659H32.4671V24.9992H36.2004V32.4659ZM11.9337 15.6659C11.4531 15.6444 10.9993 15.4383 10.6668 15.0906C10.3343 14.7429 10.1487 14.2803 10.1487 13.7992C10.1487 13.3181 10.3343 12.8555 10.6668 12.5078C10.9993 12.1601 11.4531 11.9541 11.9337 11.9326H36.2004V15.6659H11.9337Z" fill="url(#paint0_linear_66_1863)"/>
<defs>
<linearGradient id="paint0_linear_66_1863" x1="13.1393" y1="58.2492" x2="59.6103" y2="18.042" gradientUnits="userSpaceOnUse">
<stop stop-color="#982DEC"/>
<stop offset="0.572917" stop-color="#DC8DF8"/>
<stop offset="0.895833" stop-color="#A9C4F3"/>
</linearGradient>
</defs>
</svg>
