<svg width="53" height="52" viewBox="0 0 53 52" fill="none" xmlns="http://www.w3.org/2000/svg">
<g filter="url(#filter0_d_73_2808)">
<rect x="40.5" y="10" width="30" height="30" rx="4" transform="rotate(90 40.5 10)" fill="url(#paint0_linear_73_2808)"/>
</g>
<g filter="url(#filter1_d_73_2808)">
<rect x="40.5" y="10" width="30" height="30" rx="4" transform="rotate(90 40.5 10)" fill="url(#paint1_linear_73_2808)"/>
</g>
<g filter="url(#filter2_i_73_2808)">
<rect x="40.5" y="10" width="30" height="30" rx="4" transform="rotate(90 40.5 10)" fill="url(#paint2_linear_73_2808)"/>
</g>
<path d="M28.5041 26.442L28.9201 23.7292H26.3164V21.9624C26.2983 21.7598 26.326 21.5557 26.3974 21.3652C26.4688 21.1747 26.582 21.0028 26.7288 20.862C26.8757 20.7212 27.0522 20.6152 27.2455 20.5518C27.4388 20.4885 27.6439 20.4694 27.8455 20.4959H29.0293V18.1927C28.3344 18.0805 27.6322 18.0193 26.9284 18.0096C26.4441 17.9727 25.9577 18.0428 25.5035 18.2149C25.0493 18.3869 24.6386 18.6568 24.3003 19.0053C23.9621 19.3538 23.7046 19.7725 23.5462 20.2316C23.3877 20.6907 23.3322 21.179 23.3836 21.662V23.7292H21V26.442H23.3836V33H26.3164V26.442H28.5041Z" fill="url(#paint3_linear_73_2808)"/>
<defs>
<filter id="filter0_d_73_2808" x="0.5" y="0" width="46" height="46" filterUnits="userSpaceOnUse" color-interpolation-filters="sRGB">
<feFlood flood-opacity="0" result="BackgroundImageFix"/>
<feColorMatrix in="SourceAlpha" type="matrix" values="0 0 0 0 0 0 0 0 0 0 0 0 0 0 0 0 0 0 127 0" result="hardAlpha"/>
<feOffset dx="-2" dy="-2"/>
<feGaussianBlur stdDeviation="4"/>
<feComposite in2="hardAlpha" operator="out"/>
<feColorMatrix type="matrix" values="0 0 0 0 0.929167 0 0 0 0 0.902066 0 0 0 0 0.902066 0 0 0 0.1 0"/>
<feBlend mode="normal" in2="BackgroundImageFix" result="effect1_dropShadow_73_2808"/>
<feBlend mode="normal" in="SourceGraphic" in2="effect1_dropShadow_73_2808" result="shape"/>
</filter>
<filter id="filter1_d_73_2808" x="4.5" y="4" width="48" height="48" filterUnits="userSpaceOnUse" color-interpolation-filters="sRGB">
<feFlood flood-opacity="0" result="BackgroundImageFix"/>
<feColorMatrix in="SourceAlpha" type="matrix" values="0 0 0 0 0 0 0 0 0 0 0 0 0 0 0 0 0 0 127 0" result="hardAlpha"/>
<feOffset dx="3" dy="3"/>
<feGaussianBlur stdDeviation="4.5"/>
<feComposite in2="hardAlpha" operator="out"/>
<feColorMatrix type="matrix" values="0 0 0 0 0 0 0 0 0 0 0 0 0 0 0 0 0 0 0.35 0"/>
<feBlend mode="normal" in2="BackgroundImageFix" result="effect1_dropShadow_73_2808"/>
<feBlend mode="normal" in="SourceGraphic" in2="effect1_dropShadow_73_2808" result="shape"/>
</filter>
<filter id="filter2_i_73_2808" x="10.5" y="10" width="31" height="31" filterUnits="userSpaceOnUse" color-interpolation-filters="sRGB">
<feFlood flood-opacity="0" result="BackgroundImageFix"/>
<feBlend mode="normal" in="SourceGraphic" in2="BackgroundImageFix" result="shape"/>
<feColorMatrix in="SourceAlpha" type="matrix" values="0 0 0 0 0 0 0 0 0 0 0 0 0 0 0 0 0 0 127 0" result="hardAlpha"/>
<feOffset dx="1" dy="1"/>
<feGaussianBlur stdDeviation="1"/>
<feComposite in2="hardAlpha" operator="arithmetic" k2="-1" k3="1"/>
<feColorMatrix type="matrix" values="0 0 0 0 0.878431 0 0 0 0 0.898039 0 0 0 0 0.901961 0 0 0 1 0"/>
<feBlend mode="normal" in2="shape" result="effect1_innerShadow_73_2808"/>
</filter>
<linearGradient id="paint0_linear_73_2808" x1="39.7778" y1="7.78948" x2="78.3215" y2="28.3477" gradientUnits="userSpaceOnUse">
<stop stop-color="#FDFDFD"/>
<stop offset="1" stop-color="#E1E5E6"/>
</linearGradient>
<linearGradient id="paint1_linear_73_2808" x1="39.7778" y1="7.78948" x2="78.3215" y2="28.3477" gradientUnits="userSpaceOnUse">
<stop stop-color="white"/>
<stop offset="1" stop-color="#DDE2E3"/>
</linearGradient>
<linearGradient id="paint2_linear_73_2808" x1="39.7778" y1="7.78948" x2="78.3215" y2="28.3477" gradientUnits="userSpaceOnUse">
<stop stop-color="white"/>
<stop offset="1" stop-color="#DDE2E3"/>
</linearGradient>
<linearGradient id="paint3_linear_73_2808" x1="27.4943" y1="19.5993" x2="18.6375" y2="24.3402" gradientUnits="userSpaceOnUse">
<stop stop-color="#18C8FF"/>
<stop offset="1" stop-color="#933FFE"/>
</linearGradient>
</defs>
</svg>
