<svg width="53" height="52" viewBox="0 0 53 52" fill="none" xmlns="http://www.w3.org/2000/svg">
<g filter="url(#filter0_d_73_2788)">
<rect x="40.5" y="10" width="30" height="30" rx="4" transform="rotate(90 40.5 10)" fill="url(#paint0_linear_73_2788)"/>
</g>
<g filter="url(#filter1_d_73_2788)">
<rect x="40.5" y="10" width="30" height="30" rx="4" transform="rotate(90 40.5 10)" fill="url(#paint1_linear_73_2788)"/>
</g>
<g filter="url(#filter2_i_73_2788)">
<rect x="40.5" y="10" width="30" height="30" rx="4" transform="rotate(90 40.5 10)" fill="url(#paint2_linear_73_2788)"/>
</g>
<path d="M25.5094 21.1574C24.7486 21.1563 24.0046 21.3809 23.3715 21.8028C22.7384 22.2246 22.2446 22.8248 21.9527 23.5273C21.6608 24.2299 21.5839 25.0033 21.7316 25.7496C21.8793 26.4959 22.2451 27.1816 22.7827 27.7199C23.3203 28.2583 24.0054 28.6251 24.7515 28.7739C25.4976 28.9227 26.2711 28.8469 26.9741 28.556C27.677 28.2651 28.2779 27.7723 28.7007 27.1398C29.1235 26.5073 29.3492 25.7636 29.3492 25.0028C29.3499 24.4981 29.2511 23.9982 29.0585 23.5317C28.8659 23.0652 28.5832 22.6412 28.2265 22.2841C27.8699 21.9269 27.4464 21.6436 26.9801 21.4502C26.5139 21.2569 26.0141 21.1574 25.5094 21.1574ZM25.5094 27.502C25.0149 27.5031 24.5311 27.3575 24.1194 27.0836C23.7077 26.8096 23.3865 26.4197 23.1964 25.9631C23.0064 25.5066 22.9561 25.0039 23.0519 24.5187C23.1477 24.0335 23.3853 23.5877 23.7346 23.2376C24.0839 22.8875 24.5292 22.6489 25.0141 22.552C25.4991 22.4551 26.0019 22.5043 26.4589 22.6933C26.9159 22.8823 27.3066 23.2026 27.5814 23.6137C27.8563 24.0249 28.003 24.5083 28.003 25.0028C28.0015 25.6642 27.7385 26.2982 27.2714 26.7664C26.8042 27.2346 26.1708 27.4991 25.5094 27.502ZM30.4029 20.9943C30.4029 21.1716 30.3503 21.3448 30.2518 21.4922C30.1533 21.6396 30.0134 21.7545 29.8496 21.8223C29.6859 21.8901 29.5057 21.9079 29.3318 21.8733C29.158 21.8387 28.9983 21.7534 28.873 21.628C28.7476 21.5027 28.6623 21.343 28.6277 21.1692C28.5931 20.9953 28.6109 20.8151 28.6787 20.6514C28.7465 20.4876 28.8614 20.3476 29.0088 20.2492C29.1561 20.1507 29.3294 20.0981 29.5067 20.0981C29.6244 20.0979 29.7411 20.1209 29.8499 20.1658C29.9588 20.2108 30.0577 20.2768 30.1409 20.3601C30.2242 20.4433 30.2902 20.5422 30.3351 20.6511C30.3801 20.7599 30.4031 20.8766 30.4029 20.9943ZM32.9489 21.9055C32.9736 20.7397 32.5385 19.6109 31.7378 18.7632C30.8884 17.9651 29.7608 17.5304 28.5955 17.552C27.358 17.4827 23.6458 17.4827 22.4084 17.552C21.2423 17.5293 20.1137 17.9641 19.2642 18.7632C18.4647 19.6117 18.0298 20.7399 18.053 21.9055C17.9836 23.1429 17.9836 26.8552 18.053 28.0926C18.0279 29.2591 18.463 30.3886 19.2642 31.2368C20.1139 32.0344 21.2413 32.469 22.4065 32.448C23.6439 32.5173 27.3562 32.5173 28.5936 32.448C29.7594 32.4726 30.8882 32.0375 31.7359 31.2368C32.534 30.3874 32.9687 29.2598 32.9471 28.0945C33.0164 26.8571 33.0164 23.1486 32.9471 21.9074L32.9489 21.9055ZM31.3497 29.4313C31.2224 29.7537 31.0302 30.0466 30.7851 30.2917C30.54 30.5368 30.2472 30.7289 29.9248 30.8562C28.4728 31.1518 26.9877 31.2508 25.5094 31.1506C24.0289 31.2473 22.5421 31.1457 21.0884 30.8487C20.766 30.7214 20.4732 30.5293 20.2281 30.2842C19.983 30.0391 19.7908 29.7462 19.6635 29.4238C19.3624 27.9707 19.2584 26.4837 19.3542 25.0028C19.2575 23.5223 19.359 22.0355 19.656 20.5818C19.7833 20.2594 19.9755 19.9666 20.2206 19.7215C20.4657 19.4764 20.7585 19.2842 21.0809 19.1569C22.5367 18.8571 24.0263 18.7549 25.5094 18.8532C26.9899 18.7565 28.4767 18.858 29.9304 19.1551C30.2528 19.2823 30.5457 19.4745 30.7908 19.7196C31.0359 19.9647 31.228 20.2575 31.3553 20.58C31.6539 22.0334 31.7554 23.5204 31.6572 25.0009C31.7545 26.4848 31.6511 27.9751 31.3497 29.4313Z" fill="url(#paint3_linear_73_2788)"/>
<defs>
<filter id="filter0_d_73_2788" x="0.5" y="0" width="46" height="46" filterUnits="userSpaceOnUse" color-interpolation-filters="sRGB">
<feFlood flood-opacity="0" result="BackgroundImageFix"/>
<feColorMatrix in="SourceAlpha" type="matrix" values="0 0 0 0 0 0 0 0 0 0 0 0 0 0 0 0 0 0 127 0" result="hardAlpha"/>
<feOffset dx="-2" dy="-2"/>
<feGaussianBlur stdDeviation="4"/>
<feComposite in2="hardAlpha" operator="out"/>
<feColorMatrix type="matrix" values="0 0 0 0 0.929167 0 0 0 0 0.902066 0 0 0 0 0.902066 0 0 0 0.1 0"/>
<feBlend mode="normal" in2="BackgroundImageFix" result="effect1_dropShadow_73_2788"/>
<feBlend mode="normal" in="SourceGraphic" in2="effect1_dropShadow_73_2788" result="shape"/>
</filter>
<filter id="filter1_d_73_2788" x="4.5" y="4" width="48" height="48" filterUnits="userSpaceOnUse" color-interpolation-filters="sRGB">
<feFlood flood-opacity="0" result="BackgroundImageFix"/>
<feColorMatrix in="SourceAlpha" type="matrix" values="0 0 0 0 0 0 0 0 0 0 0 0 0 0 0 0 0 0 127 0" result="hardAlpha"/>
<feOffset dx="3" dy="3"/>
<feGaussianBlur stdDeviation="4.5"/>
<feComposite in2="hardAlpha" operator="out"/>
<feColorMatrix type="matrix" values="0 0 0 0 0 0 0 0 0 0 0 0 0 0 0 0 0 0 0.35 0"/>
<feBlend mode="normal" in2="BackgroundImageFix" result="effect1_dropShadow_73_2788"/>
<feBlend mode="normal" in="SourceGraphic" in2="effect1_dropShadow_73_2788" result="shape"/>
</filter>
<filter id="filter2_i_73_2788" x="10.5" y="10" width="31" height="31" filterUnits="userSpaceOnUse" color-interpolation-filters="sRGB">
<feFlood flood-opacity="0" result="BackgroundImageFix"/>
<feBlend mode="normal" in="SourceGraphic" in2="BackgroundImageFix" result="shape"/>
<feColorMatrix in="SourceAlpha" type="matrix" values="0 0 0 0 0 0 0 0 0 0 0 0 0 0 0 0 0 0 127 0" result="hardAlpha"/>
<feOffset dx="1" dy="1"/>
<feGaussianBlur stdDeviation="1"/>
<feComposite in2="hardAlpha" operator="arithmetic" k2="-1" k3="1"/>
<feColorMatrix type="matrix" values="0 0 0 0 0.878431 0 0 0 0 0.898039 0 0 0 0 0.901961 0 0 0 1 0"/>
<feBlend mode="normal" in2="shape" result="effect1_innerShadow_73_2788"/>
</filter>
<linearGradient id="paint0_linear_73_2788" x1="39.7778" y1="7.78948" x2="78.3215" y2="28.3477" gradientUnits="userSpaceOnUse">
<stop stop-color="#FDFDFD"/>
<stop offset="1" stop-color="#E1E5E6"/>
</linearGradient>
<linearGradient id="paint1_linear_73_2788" x1="39.7778" y1="7.78948" x2="78.3215" y2="28.3477" gradientUnits="userSpaceOnUse">
<stop stop-color="white"/>
<stop offset="1" stop-color="#DDE2E3"/>
</linearGradient>
<linearGradient id="paint2_linear_73_2788" x1="39.7778" y1="7.78948" x2="78.3215" y2="28.3477" gradientUnits="userSpaceOnUse">
<stop stop-color="white"/>
<stop offset="1" stop-color="#DDE2E3"/>
</linearGradient>
<linearGradient id="paint3_linear_73_2788" x1="30.1318" y1="19.0993" x2="19.4884" y2="29.7413" gradientUnits="userSpaceOnUse">
<stop stop-color="#18C8FF"/>
<stop offset="1" stop-color="#933FFE"/>
</linearGradient>
</defs>
</svg>
