<svg width="53" height="52" viewBox="0 0 53 52" fill="none" xmlns="http://www.w3.org/2000/svg">
<g filter="url(#filter0_d_73_2798)">
<rect x="40.5" y="10" width="30" height="30" rx="4" transform="rotate(90 40.5 10)" fill="url(#paint0_linear_73_2798)"/>
</g>
<g filter="url(#filter1_d_73_2798)">
<rect x="40.5" y="10" width="30" height="30" rx="4" transform="rotate(90 40.5 10)" fill="url(#paint1_linear_73_2798)"/>
</g>
<g filter="url(#filter2_i_73_2798)">
<rect x="40.5" y="10" width="30" height="30" rx="4" transform="rotate(90 40.5 10)" fill="url(#paint2_linear_73_2798)"/>
</g>
<path d="M31.4601 21.9447C31.4698 22.0781 31.4698 22.2116 31.4698 22.345C31.4777 23.4959 31.2568 24.6369 30.82 25.7018C30.3832 26.7666 29.7392 27.734 28.9254 28.5479C28.1115 29.3617 27.1441 30.0057 26.0792 30.4425C25.0144 30.8793 23.8734 31.1002 22.7225 31.0923C21.0478 31.0957 19.4079 30.6151 18 29.7083C18.2466 29.7357 18.4945 29.7485 18.7426 29.7469C20.1265 29.7506 21.4713 29.288 22.5601 28.4337C21.9187 28.4224 21.2968 28.2111 20.7813 27.8293C20.2657 27.4475 19.8823 26.9142 19.6845 26.3039C19.8765 26.3345 20.0704 26.3506 20.2648 26.3521C20.536 26.351 20.806 26.3159 21.0685 26.2477C20.3732 26.1056 19.7484 25.7274 19.3002 25.1772C18.8519 24.627 18.6078 23.9387 18.6092 23.229V23.192C19.0354 23.43 19.5118 23.5639 19.9996 23.5826C19.3466 23.1475 18.8843 22.4795 18.7072 21.7151C18.53 20.9506 18.6514 20.1474 19.0464 19.4694C19.8189 20.4194 20.7824 21.1966 21.8745 21.7504C22.9666 22.3042 24.1629 22.6223 25.3859 22.6841C25.3368 22.4526 25.3114 22.2167 25.3103 21.9801C25.3116 21.3636 25.4979 20.7617 25.8452 20.2523C26.1925 19.7429 26.6848 19.3496 27.2582 19.1232C27.8317 18.8968 28.4599 18.8479 29.0615 18.9827C29.6631 19.1175 30.2103 19.4298 30.6323 19.8793C31.3209 19.7466 31.9812 19.4953 32.5837 19.1366C32.3543 19.8471 31.8737 20.4494 31.2319 20.8308C31.842 20.7591 32.438 20.5965 33 20.3486C32.5803 20.9636 32.0597 21.5032 31.4601 21.9447Z" fill="url(#paint3_linear_73_2798)"/>
<defs>
<filter id="filter0_d_73_2798" x="0.5" y="0" width="46" height="46" filterUnits="userSpaceOnUse" color-interpolation-filters="sRGB">
<feFlood flood-opacity="0" result="BackgroundImageFix"/>
<feColorMatrix in="SourceAlpha" type="matrix" values="0 0 0 0 0 0 0 0 0 0 0 0 0 0 0 0 0 0 127 0" result="hardAlpha"/>
<feOffset dx="-2" dy="-2"/>
<feGaussianBlur stdDeviation="4"/>
<feComposite in2="hardAlpha" operator="out"/>
<feColorMatrix type="matrix" values="0 0 0 0 0.929167 0 0 0 0 0.902066 0 0 0 0 0.902066 0 0 0 0.1 0"/>
<feBlend mode="normal" in2="BackgroundImageFix" result="effect1_dropShadow_73_2798"/>
<feBlend mode="normal" in="SourceGraphic" in2="effect1_dropShadow_73_2798" result="shape"/>
</filter>
<filter id="filter1_d_73_2798" x="4.5" y="4" width="48" height="48" filterUnits="userSpaceOnUse" color-interpolation-filters="sRGB">
<feFlood flood-opacity="0" result="BackgroundImageFix"/>
<feColorMatrix in="SourceAlpha" type="matrix" values="0 0 0 0 0 0 0 0 0 0 0 0 0 0 0 0 0 0 127 0" result="hardAlpha"/>
<feOffset dx="3" dy="3"/>
<feGaussianBlur stdDeviation="4.5"/>
<feComposite in2="hardAlpha" operator="out"/>
<feColorMatrix type="matrix" values="0 0 0 0 0 0 0 0 0 0 0 0 0 0 0 0 0 0 0.35 0"/>
<feBlend mode="normal" in2="BackgroundImageFix" result="effect1_dropShadow_73_2798"/>
<feBlend mode="normal" in="SourceGraphic" in2="effect1_dropShadow_73_2798" result="shape"/>
</filter>
<filter id="filter2_i_73_2798" x="10.5" y="10" width="31" height="31" filterUnits="userSpaceOnUse" color-interpolation-filters="sRGB">
<feFlood flood-opacity="0" result="BackgroundImageFix"/>
<feBlend mode="normal" in="SourceGraphic" in2="BackgroundImageFix" result="shape"/>
<feColorMatrix in="SourceAlpha" type="matrix" values="0 0 0 0 0 0 0 0 0 0 0 0 0 0 0 0 0 0 127 0" result="hardAlpha"/>
<feOffset dx="1" dy="1"/>
<feGaussianBlur stdDeviation="1"/>
<feComposite in2="hardAlpha" operator="arithmetic" k2="-1" k3="1"/>
<feColorMatrix type="matrix" values="0 0 0 0 0.878431 0 0 0 0 0.898039 0 0 0 0 0.901961 0 0 0 1 0"/>
<feBlend mode="normal" in2="shape" result="effect1_innerShadow_73_2798"/>
</filter>
<linearGradient id="paint0_linear_73_2798" x1="39.7778" y1="7.78948" x2="78.3215" y2="28.3477" gradientUnits="userSpaceOnUse">
<stop stop-color="#FDFDFD"/>
<stop offset="1" stop-color="#E1E5E6"/>
</linearGradient>
<linearGradient id="paint1_linear_73_2798" x1="39.7778" y1="7.78948" x2="78.3215" y2="28.3477" gradientUnits="userSpaceOnUse">
<stop stop-color="white"/>
<stop offset="1" stop-color="#DDE2E3"/>
</linearGradient>
<linearGradient id="paint2_linear_73_2798" x1="39.7778" y1="7.78948" x2="78.3215" y2="28.3477" gradientUnits="userSpaceOnUse">
<stop stop-color="white"/>
<stop offset="1" stop-color="#DDE2E3"/>
</linearGradient>
<linearGradient id="paint3_linear_73_2798" x1="30.1324" y1="20.2073" x2="21.6704" y2="30.6247" gradientUnits="userSpaceOnUse">
<stop stop-color="#18C8FF"/>
<stop offset="1" stop-color="#933FFE"/>
</linearGradient>
</defs>
</svg>
