<svg width="7" height="10" viewBox="0 0 7 10" fill="none" xmlns="http://www.w3.org/2000/svg">
<path d="M6.6363 4.6098L2.18617 0.159755C2.08325 0.0567475 1.94585 0 1.79935 0C1.65284 0 1.51545 0.0567475 1.41252 0.159755L1.0848 0.487394C0.871549 0.700889 0.871549 1.04788 1.0848 1.26105L4.82168 4.99793L1.08065 8.73895C0.977727 8.84196 0.920898 8.97928 0.920898 9.1257C0.920898 9.27228 0.977727 9.4096 1.08065 9.51269L1.40837 9.84025C1.51138 9.94325 1.6487 10 1.7952 10C1.9417 10 2.0791 9.94325 2.18203 9.84025L6.6363 5.38614C6.73947 5.2828 6.79613 5.14484 6.79581 4.99817C6.79613 4.85094 6.73947 4.71305 6.6363 4.6098Z" fill="white"/>
</svg>
